# AST/ASF file generated using VICON BodyLanguage
# -----------------------------------------------
:version 1.10
:name VICON
:units
  mass 1.0
  length 0.45
  angle deg
:documentation
   .ast/.asf automatically generated from VICON data using
   VICON BodyBuilder and BodyLanguage model FoxedUp or BRILLIANT.MOD
:root
   order TX TY TZ RX RY RZ
   axis XYZ
   position 0 0 0  
   orientation 0 0 0 
:bonedata
  begin
     id 1 
     name lhipjoint
     direction 0.537252 -0.787203 0.302774 
     length 2.29576 
     axis 0 0 0  XYZ
  end
  begin
     id 2 
     name lfemur
     direction 0.34202 -0.939693 0  
     length 7.31114  
     axis 0 0 20  XYZ
    dof rx ry rz
    limits (-160.0 20.0)
           (-70.0 70.0)
           (-60.0 70.0)
  end
  begin
     id 3 
     name ltibia
     direction 0.34202 -0.939693 0   
     length 8.36008   
     axis 0 0 20   XYZ
    dof rx
    limits (-10.0 170.0)
  end
  begin
     id 4 
     name lfoot
     direction 0.0969116 -0.266263 0.959016   
     length 2.16704   
     axis -90 7.62852e-016 20   XYZ
    dof rx rz
    limits (-45.0 90.0)
           (-70.0 20.0)
  end
  begin
     id 5 
     name ltoes
     direction 1.53563e-011 -4.21779e-011 1   
     length 1.08338   
     axis -90 7.62852e-016 20   XYZ
    dof rx
    limits (-90.0 20.0)
  end
  begin
     id 6 
     name rhipjoint
     direction -0.588228 -0.754791 0.290308   
     length 2.39434  
     axis 0 0 0  XYZ 
  end
  begin
     id 7 
     name rfemur
     direction -0.34202 -0.939693 0   
     length 7.45207   
     axis 0 0 -20   XYZ
    dof rx ry rz
    limits (-160.0 20.0)
           (-70.0 70.0)
           (-70.0 60.0)
  end
  begin
     id 8 
     name rtibia
     direction -0.34202 -0.939693 0   
     length 8.03565   
     axis 0 0 -20   XYZ
    dof rx
    limits (-10.0 170.0)
 end
 begin
     id 9 
     name rfoot
     direction -0.107009 -0.294004 0.949795   
     length 2.11509  
     axis -90 -7.62852e-016 -20   XYZ
    dof rx rz
    limits (-45.0 90.0)
           (-20.0 70.0)
  end
  begin
     id 10 
     name rtoes
     direction -1.53533e-011 -4.22004e-011 1   
     length 1.05493   
     axis -90 -7.62852e-016 -20   XYZ
    dof rx
    limits (-90.0 20.0)
  end
  begin
     id 11 
     name lowerback
     direction -0.0115208 0.997969 -0.0626515   
     length 2.03153   
     axis 0 0 0   XYZ
    dof rx ry rz
    limits (-20.0 45.0)
           (-30.0 30.0)
           (-30.0 30.0)
  end
  begin
     id 12 
     name upperback
     direction -0.00423475 0.999974 -0.00583614   
     length 2.03619   
     axis 0 0 0   XYZ
    dof rx ry rz
    limits (-20.0 45.0)
           (-30.0 30.0)
           (-30.0 30.0)
  end
  begin
     id 13 
     name thorax
     direction 0.00289429 0.999728 0.0231573   
     length 2.03921   
     axis 0 0 0   XYZ
    dof rx ry rz
    limits (-20.0 45.0)
           (-30.0 30.0)
           (-30.0 30.0)
  end
  begin
     id 14 
     name lowerneck
     direction 0.0188995 0.987777 0.154721   
     length 1.78836   
     axis 0 0 0   XYZ
    dof rx ry rz
    limits (-20.0 45.0)
           (-30.0 30.0)
           (-30.0 30.0)
  end
  begin
     id 15 
     name upperneck
     direction -0.00612612 0.992995 -0.118   
     length 1.81789   
     axis 0 0 0   XYZ
    dof rx ry rz
    limits (-20.0 45.0)
           (-30.0 30.0)
           (-30.0 30.0)
  end
  begin
     id 16
     name head
     direction -0.00420226 0.998397 -0.0564482  
     length 1.82234  
     axis 0 0 0   XYZ
    dof rx ry rz
    limits (-20.0 45.0)
           (-30.0 30.0)
           (-30.0 30.0)
  end
  begin
     id 17 
     name lclavicle
     direction 0.916488 0.396539 0.0529676  
     length 3.51732  
     axis 0 0 0   XYZ
    dof ry rz
    limits (-20.0 10.0)
           (0.0 20.0)
  end
  begin
     id 18 
     name lhumerus
     direction 1 -4.4896e-011 8.36962e-028   
     length 5.45077   
     axis 180 -30 -90   XYZ
    dof rx ry rz
    limits (-60.0 90.0)
           (-90.0 90.0)
           (-90.0 90.0)
  end
  begin
     id 19
     name lradius
     direction 1 -4.48962e-011 3.01407e-027   
     length 3.05488   
     axis 180 -30 -90   XYZ
    dof rx
    limits (-10.0 170.0)
  end
  begin
     id 20
     name lwrist
     direction 1 -4.49002e-011 4.72961e-027   
     length 1.52744   
     axis -2.72261e-015 90 90   XYZ
    dof ry
    limits (-180.0 0.0)
 end
  begin
     id 21 
     name lhand
     direction 1 -4.4899e-011 9.45681e-027   
     length 0.638818   
     axis -6.0311e-015 90 90   XYZ
    dof rx rz
    limits (-90.0 90.0)
           (-45.0 45.0)
  end
  begin
     id 22 
     name lfingers
     direction 1 -4.48871e-011 1.88632e-026   
     length 0.515032   
     axis -1.20625e-014 90 90   XYZ
    dof rx
    limits (0.0 90.0)
  end
  begin
     id 23
     name lthumb
     direction 0.707107 -6.34964e-011 0.707107   
     length 0.739485   
     axis -90 45 6.32835e-014   XYZ
    dof rx rz
    limits (-45.0 45.0)
           (-45.0 45.0)
  end
  begin
     id 24 
     name rclavicle
     direction -0.949427 0.303202 0.0815894   
     length 3.76167  
     axis 0 0 0   XYZ 
    dof ry rz
    limits (-10.0 20.0)
           (-20.0 0.0)
  end
  begin
     id 25 
     name rhumerus
     direction -1 -4.48971e-011 -6.43969e-018  
     length 4.88702   
     axis 180 30 90   XYZ
    dof rx ry rz
    limits (-90.0 60.0)
           (-90.0 90.0)
           (-90.0 90.0)
  end
  begin
     id 26 
     name rradius
     direction -1 -4.48987e-011 5.46662e-027   
     length 3.22603   
     axis 180 30 90   XYZ
    dof rx
    limits (-10.0 170.0)
  end
  begin
     id 27 
     name rwrist
     direction -1 -4.48956e-011 4.72476e-027   
     length 1.61302   
     axis -2.72261e-015 -90 -90   XYZ
    dof ry
    limits (-180.0 0.0)
  end
  begin
     id 28
     name rhand
     direction -1 -4.4889e-011 9.43571e-027   
     length 0.716293   
     axis -6.0311e-015 -90 -90   XYZ
    dof rx rz
    limits (-90.0 90.0)
           (-45.0 45.0)
  end
  begin
     id 29
     name rfingers
     direction -1 -4.48887e-011 1.88701e-026   
     length 0.577494   
     axis -1.20625e-014 -90 -90   XYZ
    dof rx
    limits (0.0 90.0)
  end
  begin
     id 30
     name rthumb
     direction -0.707107 -6.34825e-011 0.707107   
     length 0.829169   
     axis -90 -45 -6.32835e-014   XYZ
    dof rx rz
    limits (-45.0 45.0)
           (-45.0 45.0)
  end
:hierarchy
  begin
    root lhipjoint rhipjoint lowerback
    lhipjoint lfemur
    lfemur ltibia
    ltibia lfoot
    lfoot ltoes
    rhipjoint rfemur
    rfemur rtibia
    rtibia rfoot
    rfoot rtoes
    lowerback upperback
    upperback thorax
    thorax lowerneck lclavicle rclavicle
    lowerneck upperneck
    upperneck head
    lclavicle lhumerus
    lhumerus lradius
    lradius lwrist
    lwrist lhand lthumb
    lhand lfingers
    rclavicle rhumerus
    rhumerus rradius
    rradius rwrist
    rwrist rhand rthumb
    rhand rfingers
  end

#!OML:ASF F:\VICON\USERDATA\INSTALL\rory3\rory3.ASF
:FULLY-SPECIFIED
:DEGREES
258
root -1.04671 16.7165 0.608322 193.379 88.0652 119.606
lowerback 36.7095 -1.06912 -2.3365
upperback 16.1019 -0.287851 -0.472107
thorax -0.545695 0.242971 0.813006
lowerneck -18.6355 0.0407304 2.55732
upperneck -5.79846 -0.121793 -2.35402
head 1.28513 -0.0121162 -1.20749
rclavicle -5.29264e-014 -1.75924e-014
rhumerus 97.3112 -2.29586 -115.529
rradius 28.8527
rwrist -170.203
rhand -32.1019 -11.7457
rfingers 7.12502
rthumb -5.34714 -41.6582
lclavicle -5.29264e-014 -1.75924e-014
lhumerus 89.4389 12.2144 100.199
lradius 30.8975
lwrist 207.678
lhand -38.0727 -33.0512
lfingers 7.12502
lthumb -11.1094 -3.36529
rfemur -104.699 -6.99974 31.0267
rtibia 35.4258
rfoot -1.59597 13.4839
rtoes 3.86142
lfemur -109.016 6.1101 -58.3322
ltibia 37.9344
lfoot 4.62019 -26.8784
ltoes 8.43485
259
root -1.05771 16.726 0.611078 192.704 87.9973 119.089
lowerback 36.5592 -1.10149 -2.31898
upperback 16.0123 -0.334078 -0.505894
thorax -0.594576 0.224577 0.783363
lowerneck -18.4339 0.0354172 2.66032
upperneck -5.80059 -0.149224 -2.42788
head 1.25055 -0.031143 -1.25016
rclavicle -1.31745e-013 -2.28354e-014
rhumerus 97.0421 -2.48239 -115.675
rradius 28.8598
rwrist -170.303
rhand -32.345 -11.4068
rfingers 7.12502
rthumb -5.58179 -41.3133
lclavicle -1.31745e-013 -2.28354e-014
lhumerus 89.1587 12.3642 99.9049
lradius 30.8131
lwrist 208.002
lhand -37.9109 -32.7748
lfingers 7.12502
lthumb -10.9533 -3.08053
rfemur -104.539 -7.08604 31.1509
rtibia 35.3056
rfoot -1.47992 13.5544
rtoes 3.68504
lfemur -108.825 6.16904 -58.0606
ltibia 37.9089
lfoot 4.70215 -26.7206
ltoes 8.98892
260
root -1.07074 16.7397 0.615554 193.668 87.8591 120.254
lowerback 36.4506 -1.15004 -2.25661
upperback 15.9457 -0.378026 -0.497337
thorax -0.632493 0.208173 0.773676
lowerneck -18.3715 0.0510302 2.75964
upperneck -5.70375 -0.148461 -2.51884
head 1.27389 -0.0369744 -1.29771
rclavicle 5.0541e-014 -4.79568e-015
rhumerus 96.7984 -2.67343 -115.775
rradius 28.848
rwrist -170.369
rhand -32.4441 -11.3438
rfingers 7.12502
rthumb -5.67752 -41.2478
lclavicle 5.0541e-014 -4.79568e-015
lhumerus 89.0326 12.438 100.063
lradius 30.6515
lwrist 207.968
lhand -38.1602 -32.5261
lfingers 7.12502
lthumb -11.1938 -2.84474
rfemur -104.32 -7.22521 31.2203
rtibia 35.1894
rfoot -1.38071 13.5194
rtoes 4.04458
lfemur -108.56 6.20361 -57.7245
ltibia 37.8232
lfoot 4.77635 -26.4571
ltoes 9.11686
261
root -1.08454 16.7595 0.618094 195.082 87.6794 121.961
lowerback 36.3886 -1.24767 -2.12699
upperback 15.9173 -0.452096 -0.499515
thorax -0.644673 0.183167 0.727056
lowerneck -18.4768 0.064257 2.69167
upperneck -5.51658 -0.118535 -2.48084
head 1.35549 -0.0216264 -1.27348
rclavicle -1.46753e-013 -3.73964e-014
rhumerus 96.5792 -2.8224 -115.926
rradius 28.8385
rwrist -170.442
rhand -32.3542 -11.6689
rfingers 7.12502
rthumb -5.59072 -41.5752
lclavicle -1.46753e-013 -3.73964e-014
lhumerus 88.824 12.5968 100.037
lradius 30.7486
lwrist 208
lhand -38.3274 -32.5492
lfingers 7.12502
lthumb -11.355 -2.87665
rfemur -104 -7.42337 31.3954
rtibia 35.0459
rfoot -1.33475 13.5541
rtoes 3.75079
lfemur -108.158 6.26955 -57.2818
ltibia 37.7134
lfoot 4.80069 -26.068
ltoes 9.18955
262
root -1.09873 16.7818 0.620136 193.675 87.5681 120.881
lowerback 36.3352 -1.32796 -2.119
upperback 15.8936 -0.543813 -0.550745
thorax -0.651613 0.14674 0.698221
lowerneck -18.458 0.134379 2.85368
upperneck -5.46189 -0.0542513 -2.65492
head 1.37478 0.00291681 -1.35531
rclavicle -1.15295e-014 -1.38652e-014
rhumerus 96.3098 -2.97611 -115.968
rradius 28.7379
rwrist -171.23
rhand -32.0566 -11.5759
rfingers 7.12502
rthumb -5.30341 -41.4896
lclavicle -1.15295e-014 -1.38652e-014
lhumerus 88.4222 12.9001 99.3109
lradius 30.9435
lwrist 208.734
lhand -37.9046 -32.6821
lfingers 7.12502
lthumb -10.9472 -2.98753
rfemur -103.658 -7.59708 31.427
rtibia 34.94
rfoot -1.36507 13.5663
rtoes 2.85205
lfemur -107.631 6.34634 -56.5884
ltibia 37.5435
lfoot 4.48647 -25.4268
ltoes 8.56155
263
root -1.11082 16.8011 0.623313 192.788 87.4477 120.257
lowerback 36.2403 -1.41014 -2.10649
upperback 15.8386 -0.642104 -0.592619
thorax -0.679117 0.105688 0.678795
lowerneck -18.327 0.226707 3.08388
upperneck -5.53452 0.0288198 -2.83423
head 1.33306 0.037509 -1.44809
rclavicle -5.1684e-014 -9.88954e-015
rhumerus 95.9834 -3.14162 -115.942
rradius 28.6376
rwrist -172.201
rhand -31.7823 -11.2684
rfingers 7.12502
rthumb -5.03853 -41.1885
lclavicle -5.1684e-014 -9.88954e-015
lhumerus 88.1587 13.1565 98.9339
lradius 31.1781
lwrist 208.793
lhand -37.7843 -33.1018
lfingers 7.12502
lthumb -10.8312 -3.40107
rfemur -103.426 -7.75804 31.46
rtibia 34.9298
rfoot -1.35801 13.6275
rtoes 2.54908
lfemur -107.151 6.37045 -55.97
ltibia 37.2945
lfoot 4.2334 -24.9012
ltoes 7.98518
264
root -1.11955 16.806 0.62767 191.956 87.3238 119.639
lowerback 36.077 -1.50503 -2.07879
upperback 15.7627 -0.75694 -0.663081
thorax -0.707462 0.0580955 0.626706
lowerneck -18.2258 0.236557 2.96682
upperneck -5.55802 0.0670112 -2.64748
head 1.30674 0.0649157 -1.36237
rclavicle 3.45885e-014 3.36443e-014
rhumerus 95.7025 -3.2442 -116.28
rradius 28.7128
rwrist -171.946
rhand -32.0445 -11.0606
rfingers 7.12502
rthumb -5.29168 -40.9746
lclavicle 3.45885e-014 3.36443e-014
lhumerus 88.0403 13.3525 98.7779
lradius 31.2472
lwrist 208.601
lhand -37.8942 -32.8632
lfingers 7.12502
lthumb -10.9372 -3.16808
rfemur -103.312 -7.90643 31.5825
rtibia 35.0145
rfoot -1.42355 13.7095
rtoes 1.99827
lfemur -106.802 6.35944 -55.9581
ltibia 36.9728
lfoot 4.53743 -24.8025
ltoes 7.98783
265
root -1.12662 16.8009 0.630321 192.344 87.1738 120.303
lowerback 35.9507 -1.58227 -1.96566
upperback 15.6869 -0.82363 -0.687318
thorax -0.750696 0.0351609 0.562986
lowerneck -18.3851 0.172419 2.71509
upperneck -5.32994 0.0259598 -2.39663
head 1.40663 0.0527204 -1.24101
rclavicle -4.34841e-014 2.73329e-015
rhumerus 95.4714 -3.42844 -116.597
rradius 28.8265
rwrist -171.416
rhand -32.3323 -11.0591
rfingers 7.12502
rthumb -5.56958 -40.9659
lclavicle -4.34841e-014 2.73329e-015
lhumerus 87.6657 13.6405 97.91
lradius 31.2054
lwrist 209.557
lhand -37.4183 -32.6813
lfingers 7.12502
lthumb -10.4782 -2.96245
rfemur -103.172 -8.0814 31.6867
rtibia 35.1519
rfoot -1.50323 13.7348
rtoes 1.62235
lfemur -106.429 6.30879 -56.1577
ltibia 36.6013
lfoot 4.71514 -24.9669
ltoes 6.74114
266
root -1.13629 16.8062 0.632978 193.208 86.9602 121.487
lowerback 35.8517 -1.65158 -1.76994
upperback 15.6355 -0.848588 -0.638694
thorax -0.778456 0.0326521 0.518975
lowerneck -18.5937 0.0851116 2.5709
upperneck -5.11296 -0.0664218 -2.34244
head 1.51265 0.00715422 -1.20707
rclavicle -1.07046e-013 -2.71838e-014
rhumerus 95.3483 -3.67843 -116.818
rradius 28.8577
rwrist -171.23
rhand -32.731 -10.8593
rfingers 7.12502
rthumb -5.95446 -40.7557
lclavicle -1.07046e-013 -2.71838e-014
lhumerus 87.2714 13.9105 97.1643
lradius 31.3012
lwrist 210.469
lhand -37.4419 -32.8521
lfingers 7.12502
lthumb -10.5009 -3.13437
rfemur -102.966 -8.30918 31.6287
rtibia 35.3177
rfoot -1.6276 13.6036
rtoes 1.77495
lfemur -105.893 6.23897 -55.843
ltibia 36.2473
lfoot 4.35921 -24.7259
ltoes 4.94948
267
root -1.14759 16.8229 0.635592 189.266 86.8 117.864
lowerback 35.7268 -1.65108 -1.84759
upperback 15.6086 -0.867374 -0.589286
thorax -0.762917 0.0199542 0.616776
lowerneck -18.7886 -0.0396149 2.30714
upperneck -4.9889 -0.182299 -2.26098
head 1.58402 -0.0460927 -1.14407
rclavicle -3.598e-014 -1.94809e-014
rhumerus 95.283 -3.83013 -117.136
rradius 28.8789
rwrist -170.828
rhand -33.1085 -10.5158
rfingers 7.12502
rthumb -6.31896 -40.4015
lclavicle -3.598e-014 -1.94809e-014
lhumerus 87.0892 14.037 97.076
lradius 31.359
lwrist 210.602
lhand -38.0654 -32.9387
lfingers 7.12502
lthumb -11.1023 -3.2524
rfemur -102.738 -8.54981 31.2287
rtibia 35.4425
rfoot -1.77498 13.4048
rtoes 1.52531
lfemur -105.249 6.18638 -55.415
ltibia 35.9579
lfoot 3.89237 -24.1059
ltoes 4.25175
268
root -1.15942 16.8322 0.6395 185.88 86.6615 114.801
lowerback 35.6025 -1.70653 -1.95816
upperback 15.5747 -0.967753 -0.656245
thorax -0.753996 -0.0262569 0.635727
lowerneck -18.8421 -0.049629 2.2531
upperneck -5.01371 -0.183419 -2.17028
head 1.58394 -0.041578 -1.10505
rclavicle 1.05604e-013 2.41026e-014
rhumerus 95.0716 -3.89161 -117.597
rradius 28.9078
rwrist -170.601
rhand -33.2642 -10.3171
rfingers 7.12502
rthumb -6.46932 -40.1983
lclavicle 1.05604e-013 2.41026e-014
lhumerus 86.889 14.2378 96.8031
lradius 31.4053
lwrist 210.819
lhand -38.2418 -33.19
lfingers 7.12502
lthumb -11.2725 -3.51292
rfemur -102.463 -8.73931 30.7897
rtibia 35.4978
rfoot -1.88652 13.1498
rtoes 1.51097
lfemur -104.743 6.19612 -55.2852
ltibia 35.7777
lfoot 3.65216 -23.8106
ltoes 3.98002
269
root -1.17297 16.8407 0.643321 185.824 86.5139 115.108
lowerback 35.4794 -1.80392 -1.89254
upperback 15.555 -1.06443 -0.724554
thorax -0.735497 -0.062029 0.559747
lowerneck -18.9998 0.00512374 2.32286
upperneck -4.96267 -0.122863 -2.12549
head 1.62989 -0.00945816 -1.09986
rclavicle -2.81777e-014 -2.68359e-014
rhumerus 94.8122 -4.00913 -117.943
rradius 28.9437
rwrist -170.685
rhand -33.2176 -10.352
rfingers 7.12502
rthumb -6.42433 -40.2346
lclavicle -2.81777e-014 -2.68359e-014
lhumerus 86.7557 14.2855 97.0752
lradius 31.541
lwrist 210.293
lhand -38.4822 -33.3055
lfingers 7.12502
lthumb -11.5043 -3.64117
rfemur -102.097 -8.89474 30.4983
rtibia 35.508
rfoot -1.90283 12.8878
rtoes 1.99568
lfemur -104.324 6.26087 -55.1502
ltibia 35.6707
lfoot 3.60337 -23.7661
ltoes 3.63977
270
root -1.18837 16.8503 0.646272 188.546 86.319 118.204
lowerback 35.3011 -1.93083 -1.62082
upperback 15.5356 -1.13461 -0.718486
thorax -0.70386 -0.0802436 0.444807
lowerneck -19.1254 0.03926 2.48363
upperneck -4.86755 -0.10861 -2.26964
head 1.68612 -0.0096678 -1.17626
rclavicle -1.59077e-013 -7.72527e-014
rhumerus 94.545 -4.18446 -118.184
rradius 28.9218
rwrist -170.823
rhand -33.1757 -10.4997
rfingers 7.12502
rthumb -6.38388 -40.3835
lclavicle -1.59077e-013 -7.72527e-014
lhumerus 86.4447 14.2359 97.3433
lradius 31.6683
lwrist 209.972
lhand -38.3392 -33.2655
lfingers 7.12502
lthumb -11.3664 -3.59358
rfemur -101.723 -9.05293 30.4399
rtibia 35.5177
rfoot -2.02485 12.6944
rtoes 1.48813
lfemur -103.9 6.30253 -54.6719
ltibia 35.5893
lfoot 3.51098 -23.5387
ltoes 2.38462
271
root -1.20065 16.859 0.648135 188.849 86.2439 118.876
lowerback 35.1421 -1.98623 -1.56658
upperback 15.4776 -1.19251 -0.730178
thorax -0.714301 -0.10374 0.421395
lowerneck -19.0976 0.07979 2.66463
upperneck -4.87212 -0.0874261 -2.48357
head 1.68263 -0.00813132 -1.27714
rclavicle -1.16289e-014 1.33186e-014
rhumerus 94.178 -4.34834 -118.266
rradius 28.9029
rwrist -171.224
rhand -33.3158 -10.6968
rfingers 7.12502
rthumb -6.5191 -40.5765
lclavicle -1.16289e-014 1.33186e-014
lhumerus 86.091 14.3588 97.1991
lradius 31.6907
lwrist 210.165
lhand -37.9242 -33.4086
lfingers 7.12502
lthumb -10.9661 -3.71499
rfemur -101.313 -9.1372 30.1814
rtibia 35.4788
rfoot -2.09761 12.4448
rtoes 1.68314
lfemur -103.531 6.45409 -54.5482
ltibia 35.5081
lfoot 3.76836 -23.4947
ltoes 2.585
